<?xml version="1.0" encoding="utf-8"?>
<!-- Generator: Adobe Illustrator 28.0.0, SVG Export Plug-In . SVG Version: 6.00 Build 0)  -->
<svg version="1.1" id="Capa_2" xmlns="http://www.w3.org/2000/svg" xmlns:xlink="http://www.w3.org/1999/xlink" x="0px" y="0px"
	 viewBox="0 0 353.11 353" style="enable-background:new 0 0 353.11 353;" xml:space="preserve">
<style type="text/css">
	.st0{fill:#FFFFFF;}
	.st1{fill:#111A2C;}
	.st2{fill:#162335;}
</style>
<g id="Capa_3">
	<path class="st0" d="M278.15,21.13H70.48c-27.07,0-49.01,21.94-49.01,49.01v209.68c0,27.07,21.94,49.01,49.01,49.01h207.66
		c27.07,0,49.01-21.94,49.01-49.01V70.14C327.16,43.07,305.22,21.13,278.15,21.13z"/>
</g>
<ellipse class="st1" cx="243.61" cy="174.5" rx="25.5" ry="31.5"/>
<path class="st2" d="M292.11,0h-231c-33.69,0-61,27.31-61,61v231c0,33.69,27.31,61,61,61h231c33.69,0,61-27.31,61-61V61
	C353.11,27.31,325.8,0,292.11,0z M30.11,72c0-23.75,19.25-43,43-43h48.19l-91.19,84.9V72z M320.11,276c0,23.75-19.25,43-43,43h-204
	c-21.46,0-39.24-15.71-42.47-36.26L120.11,238C203,194.86,185.02,67.3,177.5,29h53.41l89.2,90.89V276z M93.61,206
	c-14.08,0-25.5-14.1-25.5-31.5S79.52,143,93.61,143s25.5,14.1,25.5,31.5S107.69,206,93.61,206z"/>
<path class="st1" d="M176.93,288.25c-4.94,0-9.48-0.85-13.38-2.03c-12.14-3.66-20.2-11-21.08-11.82c-3.42-3.21-3.6-8.59-0.38-12.01
	c3.21-3.42,8.57-3.59,11.99-0.41c2.35,2.16,23.34,20.28,44.23-1c3.29-3.35,8.67-3.4,12.02-0.11c3.35,3.29,3.4,8.67,0.11,12.02
	C198.88,284.66,187.06,288.25,176.93,288.25z"/>
<path class="st1" d="M189.86,227.72c0,5.83-6.1,12.2-13,12.94c-0.31,0.04-0.62,0.06-0.94,0.07c-0.32-0.01-0.63-0.03-0.94-0.07
	c-6.9-0.74-13-7.11-13-12.94c0-2.4,0.58-5.38,2.11-7.2c2.19-2.63,6.68-2.37,10.89-2.3c0.1,0.01,0.2,0.01,0.3,0.01
	c0.08,0.01,0.16,0.01,0.24,0.01h0.8c0.08,0,0.16,0,0.24-0.01c0.1,0,0.2,0,0.3-0.01c4.21-0.07,8.7-0.33,10.89,2.3
	C189.28,222.34,189.86,225.32,189.86,227.72z"/>
</svg>
