<?xml version="1.0" encoding="utf-8"?>
<!-- Generator: Adobe Illustrator 28.0.0, SVG Export Plug-In . SVG Version: 6.00 Build 0)  -->
<svg version="1.1" xmlns="http://www.w3.org/2000/svg" xmlns:xlink="http://www.w3.org/1999/xlink" x="0px" y="0px"
	 viewBox="0 0 329.47 396.77" style="enable-background:new 0 0 329.47 396.77;" xml:space="preserve">
<style type="text/css">
	.st0{fill:#FFFFFF;}
	.st1{fill:#D4E8FC;}
	.st2{fill:#353535;}
	.st3{opacity:0.4;fill:#353535;}
</style>
<g id="Back">
	<path class="st0" d="M267.79,246.51c-13.2,17.31-30.87,29.52-50.84,36.51c3.29,11.4,7.86,31.08,6.1,47.42l-9.09,2.66l-62.6-45.05
		c-23.96-3.98-48.02-14.1-69.53-30.5C19.82,210.28,2.53,128.69,43.22,75.31C83.91,21.94,167.17,17,229.18,64.27
		C291.19,111.55,308.48,193.14,267.79,246.51z"/>
</g>
<g id="Shadow">
	<path class="st1" d="M36.99,209.56c0,0-28.04-175.07,151.96-158.02l-14.26-14.65l-35.38-5.06c0,0-121.26,6.82-118.61,108.76
		C20.7,140.59,13.5,174.69,36.99,209.56z"/>
</g>
<g id="Line">
	<path class="st2" d="M103.03,348.45c-3.35-0.82-6.7-1.53-10.02-2.12C97.88,347.1,101.32,347.97,103.03,348.45z"/>
	<path class="st3" d="M104.82,348.91l-0.57-0.09c0,0-0.39-0.13-1.14-0.35C103.68,348.61,104.25,348.76,104.82,348.91z"/>
</g>
<g id="Capa_5">
	<path class="st2" d="M121.82,213.05c-26.77-6.62-43.76-31.06-37.94-54.59s25.62-40.4,52.4-33.78
		c26.77,6.62,47.65,27.64,43.58,51.54C174.69,206.53,148.6,219.67,121.82,213.05z M152.85,181.19c2.19-1.68,2.62-4.81,0.94-7.01
		c-18.41-24.1-42.19-17.12-52.2-10.06c-2.25,1.59-2.78,4.69-1.21,6.94s4.69,2.81,6.95,1.24c0.06-0.04,5.61-3.84,13.13-4.66
		c9.64-1.06,18.17,3.19,25.37,12.61c0.98,1.29,2.47,1.97,3.98,1.97C150.88,182.21,151.95,181.88,152.85,181.19z"/>
	<path class="st2" d="M302.91,275.74l-42.6-10.59c22.69-20.11,33.91-50.54,32.47-89.82c-1.36-37.41-15.86-71.41-38.26-97.47
		c2.21-1.14,4.28-2.57,6.15-4.3c14.01-12.97,12-37.92-4.49-55.73c-16.49-17.8-41.21-21.72-55.22-8.75
		c-6.76,6.27-9.79,15.32-9.26,25.02c-14.18-5.07-29.15-7.82-44.44-7.82c-25.31,0-48.96,5.53-69.19,15.64
		c6.8-13.66,7.1-27.21-0.5-34.81C66.43-4.03,42.53,1.8,24.19,20.14C5.85,38.48,0.02,62.38,11.16,73.52
		c5.33,5.33,13.58,6.78,22.74,4.83c-14.03,18.89-22.18,42.17-22.18,68.6c0,48.48,37.4,99.75,88.21,126.83
		c-116.9-17.53-98.94,90.39-98.94,90.39c39.72-21.93,74.81-20.55,92.02-17.84c4.87,0.77,8.31,1.64,10.02,2.12
		c0.03,0.01,0.06,0.02,0.08,0.02c0.57,0.14,1.14,0.29,1.71,0.44c36.82,9.41,74.09,31.11,89.1,41.56c6.1,4.26,13.09,6.3,20.01,6.3
		c11.03,0,21.89-5.2,28.7-14.93c11.09-15.83,7.24-37.66-8.6-48.74c-0.27-0.19-2.23-1.55-5.61-3.75l57.6,14.32
		c2.84,0.71,5.67,1.05,8.47,1.05c15.7,0,29.98-10.65,33.94-26.57C333.09,299.39,321.67,280.4,302.91,275.74z M24.62,148.51
		c0-66.46,55.73-111.45,124.98-111.62c20.98,6.32,55.99,23.38,68.4,68.21c0,0,7.07,18.19-10.1,44.46
		c-17.18,26.27-12.64,69.73,21.22,72.25c29.32,2.19,47.27-15.34,55.49-36.16c-1.8,59.52-37.82,94.47-102.5,97.92
		c20.46-12.6,25.09-26.1,26.08-32.68c10.18-1.17,17.89-6.62,17.89-13.16c0-7.4-9.84-13.39-21.97-13.39c-12.14,0-24,4.73-24,12.13
		c0,6.96,10.53,13.81,21.91,14.58c-5.04,17.52-15.44,27.73-21.86,32.61C100.49,286.97,24.62,214.91,24.62,148.51z M163.68,292.81
		c5.61,0.42,11.26,0.51,16.93,0.24c8.07-0.38,15.73-1.2,22.98-2.47c2.24,3.15,4.23,6.45,6.03,9.7c2.96,5.37,5.6,10.98,7.63,16.76
		c0.63,1.8,1.22,3.59,1.81,5.37C201.39,309.95,180.94,300.01,163.68,292.81z M234.04,183.69c-0.9,0-1.82-0.24-2.64-0.76
		c-2.34-1.46-3.06-4.54-1.6-6.89c5.55-8.91,22-22.37,44.54-9.49c2.4,1.37,3.23,4.42,1.86,6.82c-1.37,2.4-4.43,3.23-6.82,1.86
		c-19.9-11.38-30.64,5.37-31.09,6.09C237.34,182.86,235.71,183.69,234.04,183.69z"/>
</g>
</svg>
